# xmcd CD database file
#
# Track frame offsets:
#	150
#	18310
#	34810
#	52403
#	69610
#	85986
#	106465
#	124536
#	142279
#	159248
#	176397
#	196012
#	213826
#	233401
#	250768
#	264729
#	279470
#	294518
#	309668
#	329513
#
# Disc length: 4649 seconds
#
# Revision: 0
# Processed by: cddbd v1.4PL0 Copyright (c) Steve Scherf et al.
# Submitted via: CdAid 2001.05.15.01
#
DISCID=24122714
DTITLE=Eternal - Millenium Best 
DYEAR=1900
DGENRE=
TTITLE0=What''Cha Gonna Do
TTITLE1=Angel Of Mine
TTITLE2=Power Of a Woman
TTITLE3=Don't You Love Me
TTITLE4=I Wanna Be The Only One
TTITLE5=Oh Baby I...
TTITLE6=Stay
TTITLE7=Just A Step From Heaven
TTITLE8=Save Our Love
TTITLE9=So Good
TTITLE10=I'm Blessed
TTITLE11=Crazy
TTITLE12=Someday
TTITLE13=Good Thing
TTITLE14=Secrets
TTITLE15=Who Are You
TTITLE16=Finally 
TTITLE17=Treat Me Like A Lady
TTITLE18=I Cry Real Tears
TTITLE19=If She Breaks Your Heart
EXTD=
EXTT0=
EXTT1=
EXTT2=
EXTT3=
EXTT4=
EXTT5=
EXTT6=
EXTT7=
EXTT8=
EXTT9=
EXTT10=
EXTT11=
EXTT12=
EXTT13=
EXTT14=
EXTT15=
EXTT16=
EXTT17=
EXTT18=
EXTT19=
PLAYORDER=
